  <svg
      width="16"
      height="16"
      viewBox="0 0 16 16"
      fill="none"
      xmlns="http://www.w3.org/2000/svg"
    >
      <mask
        id="mask0"
        mask-type="alpha"
        maskUnits="userSpaceOnUse"
        x="0"
        y="0"
        width="16"
        height="16"
      >
        <path
          d="M8 6.66699C7.73629 6.66699 7.47851 6.74519 7.25924 6.8917C7.03998 7.03821 6.86908 7.24645 6.76816 7.49008C6.66724 7.73372 6.64084 8.0018 6.69229 8.26045C6.74373 8.51909 6.87072 8.75666 7.05719 8.94313C7.24366 9.1296 7.48124 9.25659 7.73988 9.30804C7.99852 9.35949 8.26661 9.33308 8.51025 9.23217C8.75388 9.13125 8.96212 8.96035 9.10863 8.74109C9.25514 8.52182 9.33333 8.26403 9.33333 8.00033C9.33333 7.6467 9.19286 7.30757 8.94281 7.05752C8.69276 6.80747 8.35362 6.66699 8 6.66699ZM3.33333 6.66699C3.06963 6.66699 2.81184 6.74519 2.59257 6.8917C2.37331 7.03821 2.20241 7.24645 2.10149 7.49008C2.00058 7.73372 1.97417 8.0018 2.02562 8.26045C2.07707 8.51909 2.20405 8.75666 2.39052 8.94313C2.57699 9.1296 2.81457 9.25659 3.07321 9.30804C3.33185 9.35949 3.59994 9.33308 3.84358 9.23217C4.08721 9.13125 4.29545 8.96035 4.44196 8.74109C4.58847 8.52182 4.66667 8.26403 4.66667 8.00033C4.66667 7.6467 4.52619 7.30757 4.27614 7.05752C4.02609 6.80747 3.68696 6.66699 3.33333 6.66699ZM12.6667 6.66699C12.403 6.66699 12.1452 6.74519 11.9259 6.8917C11.7066 7.03821 11.5357 7.24645 11.4348 7.49008C11.3339 7.73372 11.3075 8.0018 11.359 8.26045C11.4104 8.51909 11.5374 8.75666 11.7239 8.94313C11.9103 9.1296 12.1479 9.25659 12.4065 9.30804C12.6652 9.35949 12.9333 9.33308 13.1769 9.23217C13.4205 9.13125 13.6288 8.96035 13.7753 8.74109C13.9218 8.52182 14 8.26403 14 8.00033C14 7.6467 13.8595 7.30757 13.6095 7.05752C13.3594 6.80747 13.0203 6.66699 12.6667 6.66699Z"
          fill="black"
        />
      </mask>
      <g mask="url(#mask0)">
        <rect width="16" height="16" fill="#db38ed" />
      </g>
    </svg>